# Blender 4.3.1
# www.blender.org
mtllib Hole_Cube.mtl
o Cube
v 1.000000 1.000000 -1.000000
v 1.000000 -1.000000 -1.000000
v 1.000000 1.000000 1.000000
v 1.000000 -1.000000 1.000000
v -1.000000 1.000000 -1.000000
v -1.000000 -1.000000 -1.000000
v -1.000000 1.000000 1.000000
v -1.000000 -1.000000 1.000000
v 0.333333 -1.000000 -1.000000
v -0.333333 -1.000000 -1.000000
v 0.333333 1.000000 1.000000
v -0.333333 1.000000 1.000000
v -0.333333 -1.000000 1.000000
v 0.333333 -1.000000 1.000000
v -0.333333 1.000000 -1.000000
v 0.333333 1.000000 -1.000000
v 1.000000 0.333333 -1.000000
v 1.000000 -0.333333 -1.000000
v -1.000000 -0.333333 1.000000
v -1.000000 0.333333 1.000000
v 1.000000 0.333333 1.000000
v 1.000000 -0.333333 1.000000
v -1.000000 0.333333 -1.000000
v -1.000000 -0.333333 -1.000000
v -0.333333 0.333333 -1.000000
v -0.333333 -0.333333 -1.000000
v 0.333333 0.333333 -1.000000
v 0.333333 -0.333333 -1.000000
v 0.333333 0.333333 1.000000
v 0.333333 -0.333333 1.000000
v -0.333333 0.333333 1.000000
v -0.333333 -0.333333 1.000000
v 0.333333 0.333333 -1.000000
v 0.333333 -0.333333 -1.000000
v -0.333333 0.333333 -1.000000
v -0.333333 -0.333333 -1.000000
vn -0.0000 1.0000 -0.0000
vn -0.0000 -0.0000 1.0000
vn -1.0000 -0.0000 -0.0000
vn -0.0000 -1.0000 -0.0000
vn 1.0000 -0.0000 -0.0000
vn -0.0000 -0.0000 -1.0000
vt 0.791667 0.500000
vt 0.875000 0.500000
vt 0.875000 0.750000
vt 0.791667 0.750000
vt 0.541667 0.916667
vt 0.625000 0.916667
vt 0.625000 1.000000
vt 0.541667 1.000000
vt 0.541667 0.000000
vt 0.625000 0.000000
vt 0.625000 0.250000
vt 0.541667 0.250000
vt 0.291667 0.500000
vt 0.375000 0.500000
vt 0.375000 0.750000
vt 0.291667 0.750000
vt 0.541667 0.500000
vt 0.625000 0.500000
vt 0.625000 0.750000
vt 0.541667 0.750000
vt 0.541667 0.416667
vt 0.625000 0.416667
vt 0.625000 0.333333
vt 0.541667 0.333333
vt 0.125000 0.500000
vt 0.208333 0.500000
vt 0.208333 0.750000
vt 0.125000 0.750000
vt 0.625000 0.833333
vt 0.541667 0.833333
vt 0.708333 0.500000
vt 0.708333 0.750000
vt 0.375000 0.833333
vt 0.458333 0.833333
vt 0.458333 0.916667
vt 0.375000 0.916667
vt 0.458333 0.750000
vt 0.375000 0.333333
vt 0.458333 0.333333
vt 0.458333 0.416667
vt 0.375000 0.416667
vt 0.375000 0.250000
vt 0.458333 0.250000
vt 0.458333 0.500000
vt 0.375000 0.000000
vt 0.458333 0.000000
vt 0.458333 1.000000
vt 0.375000 1.000000
s 0
usemtl Material
f 15/1/1 5/2/1 7/3/1 12/4/1
f 31/5/2 12/6/2 7/7/2 20/8/2
f 20/9/3 7/10/3 5/11/3 23/12/3
f 9/13/4 2/14/4 4/15/4 14/16/4
f 17/17/5 1/18/5 3/19/5 21/20/5
f 27/21/6 16/22/6 1/18/6 17/17/6
f 23/12/6 5/11/6 15/23/6 25/24/6
f 25/24/6 15/23/6 16/22/6 27/21/6
f 6/25/4 10/26/4 13/27/4 8/28/4
f 10/26/4 9/13/4 14/16/4 13/27/4
f 21/20/2 3/19/2 11/29/2 29/30/2
f 29/30/2 11/29/2 12/6/2 31/5/2
f 1/18/1 16/31/1 11/32/1 3/19/1
f 16/31/1 15/1/1 12/4/1 11/32/1
f 14/33/2 30/34/2 32/35/2 13/36/2
f 32/35/1 30/34/1 34/34/1 36/35/1
f 4/15/2 22/37/2 30/34/2 14/33/2
f 22/37/2 21/20/2 29/30/2 30/34/2
f 10/38/6 26/39/6 28/40/6 9/41/6
f 6/42/6 24/43/6 26/39/6 10/38/6
f 24/43/6 23/12/6 25/24/6 26/39/6
f 9/41/6 28/40/6 18/44/6 2/14/6
f 28/40/6 27/21/6 17/17/6 18/44/6
f 2/14/5 18/44/5 22/37/5 4/15/5
f 18/44/5 17/17/5 21/20/5 22/37/5
f 8/45/3 19/46/3 24/43/3 6/42/3
f 19/46/3 20/9/3 23/12/3 24/43/3
f 13/36/2 32/35/2 19/47/2 8/48/2
f 32/35/2 31/5/2 20/8/2 19/47/2
f 29/30/4 31/5/4 35/5/4 33/30/4
f 31/5/5 32/35/5 36/35/5 35/5/5
f 30/34/3 29/30/3 33/30/3 34/34/3
